<svg width="43" height="40" viewBox="0 0 43 40" fill="none" xmlns="http://www.w3.org/2000/svg">
<path opacity="0.4" d="M33.6256 17.1334V29.05C33.5738 33.8 32.2272 35 27.0997 35H10.8023C5.5885 35 4.27637 33.75 4.27637 28.7834V17.1334C4.27637 12.6334 5.36402 11.1834 9.45565 10.95C9.86999 10.9334 10.3189 10.9167 10.8023 10.9167H27.0997C32.3135 10.9167 33.6256 12.1667 33.6256 17.1334Z" fill="#80CC28"/>
<path d="M38.8053 11.2167V22.8667C38.8053 27.3667 37.7177 28.8167 33.626 29.05V17.1333C33.626 12.1667 32.3139 10.9167 27.1001 10.9167H10.8027C10.3193 10.9167 9.8704 10.9333 9.45605 10.95C9.50785 6.2 10.8545 5 15.982 5H32.2794C37.4932 5 38.8053 6.25 38.8053 11.2167Z" fill="#80CC28"/>
<path d="M12.8395 30.9333H9.87002C9.16218 30.9333 8.5752 30.3667 8.5752 29.6833C8.5752 29 9.16218 28.4333 9.87002 28.4333H12.8395C13.5474 28.4333 14.1343 29 14.1343 29.6833C14.1343 30.3667 13.5646 30.9333 12.8395 30.9333Z" fill="#80CC28"/>
<path d="M22.4906 30.9333H16.5517C15.8438 30.9333 15.2568 30.3667 15.2568 29.6833C15.2568 29 15.8438 28.4333 16.5517 28.4333H22.4906C23.1984 28.4333 23.7854 29 23.7854 29.6833C23.7854 30.3667 23.2157 30.9333 22.4906 30.9333Z" fill="#80CC28"/>
<path d="M33.6256 19.7667H4.27637V22.2667H33.6256V19.7667Z" fill="#80CC28"/>
</svg>
