<svg width="43" height="40" viewBox="0 0 43 40" fill="none" xmlns="http://www.w3.org/2000/svg">
<path opacity="0.4" d="M38.7707 13.0166V25.2666C38.2701 25.0333 37.7176 24.8666 37.0961 24.7666L36.5609 24.6833L36.112 23.7833C35.1625 21.9166 33.6087 20.8333 31.865 20.8333C30.1213 20.8333 28.5676 21.9166 27.618 23.7833L27.1519 24.6833L26.634 24.7666C24.5795 25.1 23.0948 26.2 22.5596 27.7666C22.0416 29.35 22.5769 31.0833 24.0443 32.5166L24.5795 33.0333L24.5277 33.2333C24.1824 34.7166 24.3206 35.85 24.6486 36.6666H14.2727C7.98853 36.6666 4.24219 33.05 4.24219 26.9833V13.0166C4.24219 6.94998 7.98853 3.33331 14.2727 3.33331H28.7402C35.0244 3.33331 38.7707 6.94998 38.7707 13.0166Z" fill="#FB3F6C"/>
<path d="M33.7986 24.9L34.3511 25.9834C34.6273 26.5167 35.3352 27.0167 35.9221 27.1167L36.6645 27.2334C38.9261 27.6 39.444 29.2 37.8384 30.7667L37.1479 31.4334C36.6817 31.8834 36.4401 32.75 36.5782 33.3834L36.6645 33.7834C37.286 36.4167 35.8358 37.4334 33.4706 36.05L32.97 35.75C32.3657 35.4 31.3643 35.4 30.7601 35.75L30.2595 36.05C27.877 37.4334 26.444 36.4167 27.0656 33.7834L27.1519 33.3834C27.29 32.7667 27.0483 31.8834 26.5822 31.4334L25.8916 30.7667C24.286 29.1834 24.8039 27.6 27.0656 27.2334L27.8079 27.1167C28.4122 27.0167 29.1027 26.5167 29.379 25.9834L29.9314 24.9C31.0018 22.8167 32.7282 22.8167 33.7986 24.9Z" fill="#FB3F6C"/>
<path fill-rule="evenodd" clip-rule="evenodd" d="M28.6359 13.1954C29.2011 13.6184 29.3041 14.4035 28.866 14.9492L24.8702 19.9254C23.8432 21.1793 21.9496 21.4079 20.6286 20.4225L20.6196 20.4157L17.4661 18.0202C17.2713 17.8773 16.9996 17.9129 16.8516 18.0971C16.8515 18.0973 16.8518 18.097 16.8516 18.0971L12.7435 23.2461C12.3072 23.793 11.4942 23.8949 10.9276 23.4737C10.3611 23.0524 10.2556 22.2675 10.6919 21.7206L14.8021 16.569C15.8274 15.2881 17.7286 15.0565 19.0526 16.0442L19.0616 16.051L22.2151 18.4465C22.412 18.5909 22.6894 18.5537 22.8363 18.3779L26.8193 13.4175C27.2574 12.8719 28.0707 12.7725 28.6359 13.1954Z" fill="#FB3F6C"/>
</svg>
