<svg width="571" height="383" viewBox="0 0 571 383" fill="none" xmlns="http://www.w3.org/2000/svg">
<path opacity="0.4" d="M545.239 332.53C545.239 339.12 430.989 344.475 290.083 344.475C149.15 344.449 34.9006 339.12 34.9006 332.53C34.9006 325.939 149.15 320.585 290.057 320.585C430.989 320.585 545.239 325.939 545.239 332.53Z" fill="#455A64" fill-opacity="0.2"/>
<g style="mix-blend-mode:multiply" opacity="0.4">
<path d="M548.667 362.095H0.263672V362.369H548.667V362.095Z" fill="#EBEBEB"/>
<path d="M493.716 379.742H457.39V380.017H493.716V379.742Z" fill="#EBEBEB"/>
<path d="M363.548 382.726H354.017V383H363.548V382.726Z" fill="#EBEBEB"/>
<path d="M456.296 369.564H435.248V369.838H456.296V369.564Z" fill="#EBEBEB"/>
<path d="M105.174 371.407H57.8025V371.681H105.174V371.407Z" fill="#EBEBEB"/>
<path d="M121.889 371.407H114.946V371.681H121.889V371.407Z" fill="#EBEBEB"/>
<path d="M247.21 376.035H144.461V376.31H247.21V376.035Z" fill="#EBEBEB"/>
<path d="M260.207 313.177H48.4244C46.7653 313.174 45.1752 312.513 44.0031 311.339C42.8309 310.165 42.1726 308.574 42.1726 306.914V9.20793C42.1871 7.55836 42.8517 5.9811 44.0223 4.81875C45.1929 3.65639 46.7748 3.00283 48.4244 3H260.207C261.868 3 263.461 3.65983 264.635 4.83432C265.81 6.00882 266.47 7.60178 266.47 9.26277V306.914C266.47 308.575 265.81 310.168 264.635 311.343C263.461 312.517 261.868 313.177 260.207 313.177ZM48.4244 3.21936C46.838 3.22227 45.3176 3.85448 44.1969 4.97724C43.0762 6.1 42.4468 7.62156 42.4468 9.20793V306.914C42.4468 308.501 43.0762 310.022 44.1969 311.145C45.3176 312.268 46.838 312.9 48.4244 312.903H260.207C261.794 312.9 263.316 312.268 264.438 311.146C265.561 310.023 266.193 308.502 266.196 306.914V9.20793C266.193 7.62055 265.561 6.09902 264.438 4.97657C263.316 3.85413 261.794 3.22226 260.207 3.21936H48.4244Z" fill="#EBEBEB"/>
<path d="M497.459 313.177H285.665C284.005 313.174 282.414 312.514 281.24 311.34C280.066 310.166 279.405 308.575 279.402 306.914V9.20793C279.42 7.55736 280.087 5.98011 281.259 4.81806C282.431 3.65601 284.014 3.00279 285.665 3H497.459C499.106 3.00571 500.686 3.66055 501.854 4.8226C503.022 5.98464 503.685 7.56025 503.7 9.20793V306.914C503.7 308.572 503.043 310.161 501.873 311.335C500.703 312.509 499.116 313.171 497.459 313.177ZM285.665 3.21936C284.078 3.22226 282.556 3.85413 281.434 4.97657C280.311 6.09902 279.679 7.62055 279.677 9.20793V306.914C279.679 308.502 280.311 310.023 281.434 311.146C282.556 312.268 284.078 312.9 285.665 312.903H497.459C499.046 312.9 500.568 312.268 501.69 311.146C502.812 310.023 503.444 308.502 503.447 306.914V9.20793C503.444 7.62055 502.812 6.09902 501.69 4.97657C500.568 3.85413 499.046 3.22226 497.459 3.21936H285.665Z" fill="#EBEBEB"/>
<path d="M506.123 118.933H312.767V311.313H506.123V118.933Z" fill="#F0F0F0"/>
<path d="M499.29 127.861H319.6V180.222H499.29V127.861Z" fill="#E0E0E0"/>
<path d="M329.811 136.339H319.6V180.222H329.811V136.339Z" fill="#EBEBEB"/>
<path d="M379.166 136.339H368.955V180.222H379.166V136.339Z" fill="#EBEBEB"/>
<path d="M435.197 135.235L425.134 136.969L432.589 180.215L442.651 178.48L435.197 135.235Z" fill="#EBEBEB"/>
<path d="M342.457 142.119H332.246V180.222H342.457V142.119Z" fill="#EBEBEB"/>
<path d="M365.917 142.119H355.706V180.222H365.917V142.119Z" fill="#EBEBEB"/>
<path d="M425.145 142.119H414.934V180.222H425.145V142.119Z" fill="#EBEBEB"/>
<path d="M392.578 140.784L382.61 142.999L390.877 180.195L400.845 177.979L392.578 140.784Z" fill="#EBEBEB"/>
<path d="M351.275 134.156H346.175V180.211H351.275V134.156Z" fill="#EBEBEB"/>
<path d="M411.994 134.156H406.894V180.211H411.994V134.156Z" fill="#EBEBEB"/>
<path d="M319.599 240.865L499.289 240.865V188.503L319.599 188.503V240.865Z" fill="#E0E0E0"/>
<path d="M489.077 240.865H499.289V196.981H489.077V240.865Z" fill="#EBEBEB"/>
<path d="M439.721 240.865H449.932V196.981H439.721V240.865Z" fill="#EBEBEB"/>
<path d="M376.243 239.117L386.306 240.852L393.76 197.606L383.698 195.872L376.243 239.117Z" fill="#EBEBEB"/>
<path d="M476.433 240.865H486.644V202.762H476.433V240.865Z" fill="#EBEBEB"/>
<path d="M452.971 240.865H463.182V202.762H452.971V240.865Z" fill="#EBEBEB"/>
<path d="M393.743 240.865H403.954V202.762H393.743V240.865Z" fill="#EBEBEB"/>
<path d="M417.211 236.321L427.218 238.567L435.6 201.226L425.593 198.98L417.211 236.321Z" fill="#EBEBEB"/>
<path d="M467.613 240.865H472.713V194.81H467.613V240.865Z" fill="#EBEBEB"/>
<path d="M406.895 240.865H411.995V194.81H406.895V240.865Z" fill="#EBEBEB"/>
<path d="M329.811 196.981H319.6V240.865H329.811V196.981Z" fill="#EBEBEB"/>
<path d="M342.457 202.762H332.246V240.865H342.457V202.762Z" fill="#EBEBEB"/>
<path d="M365.917 202.762H355.706V240.865H365.917V202.762Z" fill="#EBEBEB"/>
<path d="M351.275 194.799H346.175V240.854H351.275V194.799Z" fill="#EBEBEB"/>
<path d="M499.29 249.157H319.6V301.518H499.29V249.157Z" fill="#E0E0E0"/>
<path d="M432.943 257.624H422.732V301.507H432.943V257.624Z" fill="#EBEBEB"/>
<path d="M488.976 256.525L478.914 258.259L486.368 301.505L496.431 299.77L488.976 256.525Z" fill="#EBEBEB"/>
<path d="M396.234 263.415H386.022V301.518H396.234V263.415Z" fill="#EBEBEB"/>
<path d="M419.705 263.415H409.494V301.518H419.705V263.415Z" fill="#EBEBEB"/>
<path d="M478.921 263.415H468.71V301.518H478.921V263.415Z" fill="#EBEBEB"/>
<path d="M446.362 262.079L436.394 264.294L444.661 301.49L454.629 299.274L446.362 262.079Z" fill="#EBEBEB"/>
<path d="M405.052 255.452H399.952V301.507H405.052V255.452Z" fill="#EBEBEB"/>
<path d="M465.772 255.452H460.671V301.507H465.772V255.452Z" fill="#EBEBEB"/>
<path d="M371.559 256.531L361.496 258.265L368.95 301.511L379.013 299.776L371.559 256.531Z" fill="#EBEBEB"/>
<path d="M361.485 263.415H351.274V301.518H361.485V263.415Z" fill="#EBEBEB"/>
<path d="M328.936 262.086L318.968 264.302L327.234 301.497L337.202 299.282L328.936 262.086Z" fill="#EBEBEB"/>
<path d="M348.337 255.452H343.237V301.507H348.337V255.452Z" fill="#EBEBEB"/>
<path d="M41.3718 311.313H234.728L234.728 118.933L41.3718 118.933L41.3718 311.313Z" fill="#F0F0F0"/>
<path d="M48.205 180.211L227.895 180.211V127.85L48.205 127.85V180.211Z" fill="#E0E0E0"/>
<path d="M217.684 180.211H227.895V136.328H217.684V180.211Z" fill="#EBEBEB"/>
<path d="M168.327 180.211H178.539V136.328H168.327V180.211Z" fill="#EBEBEB"/>
<path d="M104.852 178.473L114.915 180.207L122.37 136.962L112.307 135.227L104.852 178.473Z" fill="#EBEBEB"/>
<path d="M205.037 180.211H215.248V142.108H205.037V180.211Z" fill="#EBEBEB"/>
<path d="M181.567 180.211H191.778V142.108H181.567V180.211Z" fill="#EBEBEB"/>
<path d="M122.35 180.211H132.561V142.108H122.35V180.211Z" fill="#EBEBEB"/>
<path d="M146.663 178.003L156.631 180.218L164.897 143.022L154.929 140.807L146.663 178.003Z" fill="#EBEBEB"/>
<path d="M196.219 180.211H201.319V134.156H196.219V180.211Z" fill="#EBEBEB"/>
<path d="M135.499 180.211H140.6V134.156H135.499V180.211Z" fill="#EBEBEB"/>
<path d="M227.895 188.503H48.2046V240.865H227.895V188.503Z" fill="#E0E0E0"/>
<path d="M58.4159 196.981H48.2046V240.865H58.4159V196.981Z" fill="#EBEBEB"/>
<path d="M107.772 196.981H97.5608V240.865H107.772V196.981Z" fill="#EBEBEB"/>
<path d="M164.605 197.003L154.495 198.739L161.956 242.183L172.065 240.447L164.605 197.003Z" fill="#EBEBEB"/>
<path d="M71.0624 202.762H60.8511V240.865H71.0624V202.762Z" fill="#EBEBEB"/>
<path d="M94.5228 202.762H84.3115V240.865H94.5228V202.762Z" fill="#EBEBEB"/>
<path d="M153.751 202.762H143.54V240.865H153.751V202.762Z" fill="#EBEBEB"/>
<path d="M121.186 201.454L111.218 203.669L119.484 240.865L129.452 238.65L121.186 201.454Z" fill="#EBEBEB"/>
<path d="M79.8814 194.799H74.7812V240.854H79.8814V194.799Z" fill="#EBEBEB"/>
<path d="M140.6 194.799H135.5V240.854H140.6V194.799Z" fill="#EBEBEB"/>
<path d="M217.684 240.865H227.895V196.981H217.684V240.865Z" fill="#EBEBEB"/>
<path d="M205.037 240.865H215.248V202.762H205.037V240.865Z" fill="#EBEBEB"/>
<path d="M181.567 240.865H191.778V202.762H181.567V240.865Z" fill="#EBEBEB"/>
<path d="M196.219 240.865H201.319V194.81H196.219V240.865Z" fill="#EBEBEB"/>
<path d="M48.205 301.507H227.895V249.146L48.205 249.146V301.507Z" fill="#E0E0E0"/>
<path d="M114.551 301.518H124.762V257.635H114.551V301.518Z" fill="#EBEBEB"/>
<path d="M51.0682 299.775L61.1311 301.51L68.5854 258.264L58.5225 256.529L51.0682 299.775Z" fill="#EBEBEB"/>
<path d="M151.25 301.507H161.461V263.404H151.25V301.507Z" fill="#EBEBEB"/>
<path d="M127.789 301.507H138V263.404H127.789V301.507Z" fill="#EBEBEB"/>
<path d="M68.5731 301.507H78.7844V263.404H68.5731V301.507Z" fill="#EBEBEB"/>
<path d="M92.892 299.3L102.86 301.515L111.127 264.32L101.159 262.104L92.892 299.3Z" fill="#EBEBEB"/>
<path d="M142.443 301.507H147.543V255.452H142.443V301.507Z" fill="#EBEBEB"/>
<path d="M81.7236 301.507H86.8237V255.452H81.7236V301.507Z" fill="#EBEBEB"/>
<path d="M168.499 299.767L178.562 301.501L186.016 258.256L175.953 256.521L168.499 299.767Z" fill="#EBEBEB"/>
<path d="M186.008 301.507H196.219V263.404H186.008V301.507Z" fill="#EBEBEB"/>
<path d="M210.327 299.29L220.295 301.505L228.562 264.31L218.594 262.094L210.327 299.29Z" fill="#EBEBEB"/>
<path d="M199.159 301.507H204.259V255.452H199.159V301.507Z" fill="#EBEBEB"/>
<path d="M268.433 98.4222C288.726 98.4222 305.176 81.9718 305.176 61.6792C305.176 41.3865 288.726 24.9361 268.433 24.9361C248.14 24.9361 231.69 41.3865 231.69 61.6792C231.69 81.9718 248.14 98.4222 268.433 98.4222Z" fill="#E0E0E0"/>
<path d="M268.982 91.8415C285.943 91.8415 299.692 78.0918 299.692 61.1308C299.692 44.1698 285.943 30.4202 268.982 30.4202C252.021 30.4202 238.271 44.1698 238.271 61.1308C238.271 78.0918 252.021 91.8415 268.982 91.8415Z" fill="white"/>
<path d="M268.248 63.3216C267.979 63.3007 267.719 63.2218 267.487 63.0908C267.255 62.9597 267.056 62.7799 266.906 62.5648L253.932 44.0738C253.8 43.8863 253.708 43.6757 253.662 43.4541C253.615 43.2325 253.613 43.0042 253.658 42.7821C253.703 42.5601 253.793 42.3488 253.923 42.1602C254.053 41.9716 254.22 41.8094 254.415 41.6829C254.61 41.5564 254.829 41.4681 255.06 41.4229C255.29 41.3778 255.528 41.3768 255.759 41.4199C255.99 41.463 256.21 41.5495 256.406 41.6743C256.602 41.7991 256.771 41.9598 256.903 42.1473L268.606 58.8322L276.766 50.2317C276.92 50.0486 277.111 49.8977 277.327 49.7883C277.544 49.679 277.782 49.6135 278.026 49.5959C278.27 49.5783 278.515 49.609 278.746 49.6862C278.977 49.7633 279.19 49.8852 279.37 50.0443C279.55 50.2034 279.694 50.3963 279.794 50.6112C279.894 50.8261 279.946 51.0583 279.949 51.2935C279.951 51.5287 279.904 51.7619 279.809 51.9787C279.714 52.1955 279.574 52.3912 279.397 52.5539L269.698 62.7368C269.518 62.9339 269.294 63.0891 269.043 63.1904C268.792 63.2918 268.52 63.3366 268.248 63.3216Z" fill="#E0E0E0"/>
</g>
<g filter="url(#filter0_d_139_920)">
<path opacity="0.95" d="M402.842 275.533H288.875C281.417 275.533 275.384 269.48 275.384 262.041V123.591C275.384 116.133 281.417 110.1 288.875 110.1H402.842C410.3 110.1 416.333 116.133 416.333 123.591V262.041C416.333 269.48 410.281 275.533 402.842 275.533Z" fill="url(#paint0_linear_139_920)"/>
<path d="M361.899 226.663H296.842V230.665H361.899V226.663Z" fill="#E0E0E0"/>
<path d="M349.442 245.914H296.842V249.917H349.442V245.914Z" fill="#E0E0E0"/>
<path d="M327.672 236.288H296.842V240.291H327.672V236.288Z" fill="#E0E0E0"/>
<path d="M378.926 126.579V128.609H390.855V139.797H392.886V126.579H378.926ZM297.976 139.797H299.987V128.609H311.917V126.579H297.976V139.797ZM390.836 197.532V208.719H378.906V210.75H392.847V197.532H390.836ZM299.987 197.532H297.957V210.75H311.897V208.719H299.987V197.532Z" fill="#4598E6"/>
<path d="M386.559 250.21C379.979 250.21 374.629 244.86 374.629 238.28C374.629 231.7 379.979 226.35 386.559 226.35C393.139 226.35 398.489 231.7 398.489 238.28C398.469 244.86 393.119 250.21 386.559 250.21ZM386.559 228.674C381.248 228.674 376.953 232.989 376.953 238.28C376.953 243.591 381.268 247.886 386.559 247.886C391.87 247.886 396.165 243.571 396.165 238.28C396.165 232.989 391.85 228.674 386.559 228.674Z" fill="#4598E6"/>
<path d="M385.797 242.985L380.369 237.557L382.009 235.937L385.797 239.725L391.088 234.414L392.728 236.035L385.797 242.985Z" fill="#4598E6"/>
<path d="M388.435 189.195H375.06C374.182 182.79 373.108 175.488 373.108 175.488C373.108 175.488 372.561 181.521 371.917 189.195H318.419C317.931 182.283 317.345 177.128 317.13 177.011C316.818 176.855 314.924 182.986 313.323 189.195H298.816C302.545 173.145 309.496 147.392 313.499 145.85C319.219 143.663 342.551 136.478 342.551 136.478H355.867C355.867 136.478 379.512 143.233 381.718 150.555C383.456 156.412 387.302 175.683 388.435 189.195Z" fill="#455A64"/>
<path d="M349.814 93.3084C349.814 93.3084 362.231 95.2609 360.357 114.708C358.463 134.154 347.49 132.553 346.768 132.534C346.026 132.514 335.756 132.885 334.955 109.143C334.936 109.143 334.584 91.5902 349.814 93.3084Z" fill="#EEA987"/>
<path d="M355.612 126.813C355.612 126.813 355.28 134.818 356.041 136.536C356.822 138.274 345.791 143.819 339.055 137.63C339.055 137.63 340.675 128.941 340.226 125.856C339.777 122.771 355.612 126.813 355.612 126.813Z" fill="#EEA987"/>
<path d="M360.532 109.221C360.532 109.221 361.898 107.776 362.386 109.241C362.894 110.705 360.278 117.285 360.453 117.578C360.453 117.578 360.2 118.144 359.887 117.831C359.555 117.519 360.532 109.221 360.532 109.221Z" fill="#EEA987"/>
<path d="M335.07 108.967C335.07 108.967 333.742 107.483 333.215 108.948C332.688 110.412 335.168 117.031 334.992 117.324C334.992 117.324 335.226 117.89 335.558 117.597C335.89 117.285 335.07 108.967 335.07 108.967Z" fill="#EEA987"/>
<path d="M360.533 112.189L358.757 114.571C358.757 114.571 358.815 109.358 358.522 108.538C358.229 107.718 357.8 105.218 357.566 104.633C357.331 104.047 346.886 101.118 337.689 105.492C337.689 105.492 338.099 109.24 337.221 109.572C336.342 109.904 336.772 115.684 336.772 115.684L335.307 114.024C335.307 114.024 333.062 99.0681 333.628 97.5061C334.175 95.9441 335.952 86.5722 354.852 92.1368C354.852 92.1368 360.748 90.8872 361.92 94.9483C363.072 99.029 360.533 112.189 360.533 112.189Z" fill="#455A64"/>
<path d="M356.041 136.536C356.041 136.536 358.853 137.141 347.119 148.368C347.119 148.368 338.801 139.172 339.074 137.63C339.328 136.087 356.041 136.536 356.041 136.536Z" fill="#EEA987"/>
<path d="M347.118 148.368L350.32 153.855L359.809 137.727L355.709 134.857L347.118 148.368Z" fill="#193542"/>
<path d="M347.119 148.368L339.348 136.009L334.936 138.84L342.843 153.855L347.119 148.368Z" fill="#193542"/>
<path d="M344.698 182.634C344.796 184.45 344.835 186.695 344.835 189.214H344.386C344.386 186.715 344.347 184.489 344.249 182.673C343.527 168.967 346.846 152.273 346.866 148.349L347.295 148.427C347.295 152.332 343.976 168.967 344.698 182.634Z" fill="#193542"/>
<path d="M341.398 130.249C341.398 130.249 344.346 133.373 348.524 132.534C352.703 131.694 354.538 129.8 354.538 129.8C354.538 129.8 352.898 133.92 348.075 134.31C343.253 134.681 341.398 130.249 341.398 130.249Z" fill="#B9836A"/>
</g>
<g filter="url(#filter1_d_139_920)">
<path opacity="0.95" d="M502.007 89.941H442.342C436.89 89.941 432.463 85.5138 432.463 80.0413V28.2879C432.463 22.8154 436.89 18.3882 442.342 18.3882H502.007C507.459 18.3882 511.886 22.8154 511.886 28.2674V80.0413C511.886 85.5138 507.459 89.941 502.007 89.941Z" fill="url(#paint1_linear_139_920)"/>
<path d="M475.013 76.3929H468.721V77.5612H475.013V76.3929Z" fill="#4598E6"/>
<path d="M491.06 31.3419V32.4897H497.783V38.8026H498.931V31.3624H491.06V31.3419ZM445.436 38.7821H446.583V32.4692H453.306V31.3214H445.436V38.7821ZM497.763 71.3098V77.6227H491.04V78.7705H498.89V71.3303H497.763V71.3098ZM446.583 71.3098H445.436V78.7705H453.286V77.6227H446.583V71.3098Z" fill="#4598E6"/>
<path d="M467.943 41.1597C467.943 41.1597 464.048 55.8351 463.228 59.135C462.982 60.1393 462.204 61.861 461.22 63.8081C461.22 63.8286 461.199 63.8286 461.199 63.8491C460.994 64.2796 460.892 64.669 460.83 65.0379C460.666 66.2677 461.138 67.231 460.338 68.6863L460.195 69.3012H452.447C453.349 66.6161 454.497 63.2137 455.399 60.4877C456.157 58.1716 456.772 56.327 456.936 55.7941C457.407 54.1954 459.17 49.0508 460.646 45.6279C461.158 44.4391 463.167 43.2503 464.93 42.4099C466.528 41.6516 467.943 41.1597 467.943 41.1597Z" fill="#323657"/>
<path d="M462.777 20.1918C462.777 20.1918 460.318 4.28665 473.497 4.5736C486.676 4.86055 486.512 12.7311 486.266 20.5403C486.041 28.3494 480.978 27.755 486.676 38.6385C492.374 49.5016 481.737 49.5016 481.737 49.5016L473.497 38.1671L462.777 20.1918Z" fill="#FCCCA2"/>
<path d="M472.041 6.11087C472.041 6.11087 463.105 7.52512 462.757 20.2124C462.408 32.8996 465.155 35.6051 472.984 32.9611C480.793 30.3171 483.253 17.0559 483.437 14.9858C483.622 12.9157 484.093 4.57364 472.041 6.11087Z" fill="#EEA886"/>
<path d="M487.722 50.219C487.763 54.5847 482.741 65.0174 481.962 68.2558C481.88 68.6247 481.778 68.9732 481.675 69.3011H457.326C457.203 67.8049 457.08 66.5136 457.018 65.7757C456.834 63.3982 454.415 58.2536 454.497 55.8555C454.579 53.4164 455.768 51.3053 457.449 48.7228C457.961 47.9234 458.514 47.1036 459.068 46.3042C460.851 43.7012 462.614 41.3441 463.475 40.5242C464.13 39.9298 464.725 39.4584 465.258 39.11C466.344 38.3721 467.082 38.1467 467.082 38.1467L474.748 36.9169C474.748 36.9169 479.523 38.6591 482.29 39.2944C482.27 39.2944 487.64 40.0733 487.722 50.219Z" fill="#1777E5"/>
<path d="M465.235 39.11L460.788 46.1197L456.688 52.5966C456.688 52.5556 456.975 51.5923 457.426 48.7433C457.508 48.2104 457.611 47.5955 457.713 46.9191C457.734 46.7141 457.795 46.5092 457.836 46.3247C459.599 42.2664 465.03 39.2125 465.235 39.11Z" fill="#1777E5"/>
<path d="M478.006 27.222C477.227 28.6773 476.407 37.7572 476.407 37.7572C476.407 37.7572 465.483 41.8769 466.61 39.5404C467.122 38.4745 467.266 37.1013 467.266 35.9125C467.266 34.9697 467.204 34.1703 467.143 33.6989C467.122 33.4529 467.102 33.33 467.102 33.33C467.102 33.33 478.785 25.7668 478.006 27.222Z" fill="#EEA886"/>
<path d="M468.413 15.2113C468.413 15.2113 472.984 22.672 477.165 25.603C481.326 28.5339 479.214 30.891 479.214 30.891C479.214 30.891 490.098 7.9966 479.747 6.39788C469.397 4.81966 463.063 4.69668 462.776 20.1919C462.776 20.1919 467.47 15.0883 468.413 15.2113Z" fill="#FCCCA2"/>
<path d="M473.394 32.7972C471.713 35.2772 467.286 35.9331 467.286 35.9331C467.286 34.9903 467.225 34.1909 467.163 33.7195C470.012 34.2729 473.394 32.7972 473.394 32.7972Z" fill="#A77860"/>
<path d="M457.88 46.2632C457.88 46.2632 457.634 46.7551 457.449 48.7228L459.048 46.3042C459.048 46.3042 461.917 42.1844 462.901 41.1186C463.885 40.0528 465.238 39.11 465.238 39.11C465.238 39.11 459.581 41.836 457.88 46.2632Z" fill="#EBEEFF"/>
<path d="M479.604 52.4121C479.604 52.4121 486.614 49.6656 488.684 49.5017C488.684 49.5017 487.27 38.2492 480.383 39.4379C473.496 40.6472 479.604 52.4121 479.604 52.4121Z" fill="#1777E5"/>
<path d="M467.061 38.1467C467.061 38.1467 461.917 46.0583 463.659 46.7552C465.401 47.4521 474.829 45.8329 478.826 38.3107C478.847 38.3107 472.841 35.2362 467.061 38.1467Z" fill="#EEA886"/>
<path d="M488.685 49.5017C488.336 55.7121 486.574 61.5946 485.118 66.9851C484.914 67.764 484.709 68.5429 484.524 69.3012H470.259C470.218 67.1696 470.238 65.2839 470.3 63.7057C471.017 46.4888 476.469 37.4294 476.469 37.4294C476.469 37.4294 478.211 38.0238 483.233 39.438C486.676 40.4014 487.967 44.7876 488.439 47.4316C488.439 47.4316 488.439 47.4521 488.439 47.4726C488.623 48.6614 488.685 49.5017 488.685 49.5017Z" fill="#323657"/>
<path d="M467.061 38.1466C467 38.2491 466.057 39.8273 464.95 42.4098C463.27 46.2837 461.159 52.4121 460.974 59.1759C460.913 61.3485 460.482 64.8534 459.826 69.3011H456.977C456.69 65.5912 456.014 62.6193 455.42 60.4876C455.03 59.0939 454.682 58.0691 454.477 57.4132C453.575 54.3182 456.465 50.219 457.449 48.7432C458.412 47.2675 460.749 40.5037 467.061 38.1466Z" fill="#323657"/>
<path d="M493.215 69.3013H485.549C485.549 68.8093 485.385 67.9895 485.098 66.9852C483.705 62.0455 479.585 52.4123 479.585 52.4123C479.585 52.4123 473.416 42.3485 479.257 39.766C485.098 37.204 487.62 44.3777 488.398 47.4316C488.398 47.4316 488.398 47.4521 488.398 47.4726C488.624 48.2105 492.088 61.4716 493.215 69.3013Z" fill="#323657"/>
</g>
<g filter="url(#filter2_d_139_920)">
<path opacity="0.95" d="M552.14 235.706H476.272C470.278 235.706 465.413 230.84 465.413 224.847V148.979C465.413 142.985 470.278 138.119 476.272 138.119H552.14C558.134 138.119 562.999 142.985 562.999 148.979V224.847C562.999 230.84 558.134 235.706 552.14 235.706Z" fill="url(#paint2_linear_139_920)"/>
<path d="M536.785 213.488H491.608V215.726H536.785V213.488Z" fill="#E0E0E0"/>
<path d="M530.386 220.518H498.011V222.756H530.386V220.518Z" fill="#E0E0E0"/>
<path d="M536.97 148.257V149.626H545.073V157.229H546.442V148.257H536.97ZM481.97 157.229H483.339V149.626H491.442V148.257H481.97V157.229ZM545.055 196.449V204.053H536.952V205.422H546.442V196.449H545.055ZM483.339 196.449H481.97V205.422H491.442V204.053H483.339V196.449Z" fill="#4598E6"/>
<path d="M505.17 148.775H505.152C504.893 148.72 504.467 147.443 504.375 147.184C504.356 147.11 504.319 146.981 504.264 146.814C503.931 145.797 503.154 143.41 503.468 142.485C503.561 142.189 503.709 142.023 503.912 141.986C504.338 141.893 504.819 142.43 504.837 142.467L504.856 142.485V142.504C504.967 143.503 505.503 148.535 505.263 148.757C505.226 148.775 505.189 148.775 505.17 148.775ZM503.986 142.078C503.968 142.078 503.931 142.078 503.912 142.078C503.746 142.115 503.635 142.263 503.542 142.504C503.246 143.392 504.042 145.834 504.338 146.759C504.393 146.944 504.43 147.073 504.449 147.129C504.652 147.739 504.985 148.609 505.152 148.646C505.152 148.646 505.152 148.646 505.17 148.646C505.318 148.442 504.985 144.761 504.726 142.485C504.671 142.448 504.319 142.078 503.986 142.078Z" fill="#EEA886"/>
<path d="M513.92 128.758C513.92 128.758 520.395 128.074 522.744 134.345C525.075 140.598 527.277 142.652 527.554 145.945C528.664 159.246 534.88 156.23 533.123 163.908C531.384 171.567 530.163 172.732 530.163 172.732L515.326 169.809L500.286 169.865C500.286 169.865 506.169 166.923 504.855 160.67C503.542 154.418 500.286 144.15 502.117 137.176C503.967 130.164 510.054 129.295 513.92 128.758Z" fill="#16202E"/>
<path d="M521.839 148.775C521.802 148.775 521.783 148.756 521.765 148.738C521.543 148.516 522.061 143.484 522.172 142.485V142.467L522.19 142.448C522.209 142.43 522.69 141.893 523.115 141.967C523.319 142.004 523.467 142.171 523.559 142.467C523.855 143.373 523.097 145.76 522.764 146.795C522.708 146.98 522.671 147.11 522.653 147.165C522.579 147.424 522.153 148.701 521.876 148.756C521.857 148.775 521.839 148.775 521.839 148.775ZM522.264 142.522C522.024 144.798 521.672 148.479 521.82 148.682C521.82 148.682 521.82 148.682 521.839 148.682C521.987 148.645 522.338 147.757 522.542 147.147C522.56 147.073 522.597 146.943 522.653 146.777C522.949 145.852 523.744 143.392 523.448 142.522C523.356 142.263 523.245 142.115 523.078 142.097C522.745 142.023 522.338 142.448 522.264 142.522Z" fill="#EEA886"/>
<path d="M544.389 188.55H535.139C533.215 185.053 531.661 182.315 531.661 182.315C531.661 182.315 530.422 184.591 529.441 188.55H498.306C497.825 186.089 497.806 183.721 497.899 182.038C497.899 182.038 496.234 185.053 494.31 188.55H483.839C486.614 183.351 491.812 173.879 492.996 172.64C494.476 171.086 503.079 165.129 509.239 163.186C515.381 161.244 518.878 163.112 518.878 163.112C518.878 163.112 525.186 164.241 531.032 166.572C533.326 167.497 539.653 179.207 544.389 188.55Z" fill="#1777E5"/>
<path d="M514.771 132.421C514.771 132.421 523.355 133.661 522.097 146.333C520.839 159.005 513.272 158.006 512.754 157.988C512.255 157.969 505.151 158.247 504.54 142.781C504.54 142.781 504.263 131.348 514.771 132.421Z" fill="#8E4F3A"/>
<path d="M518.582 155.731C518.582 155.731 518.045 162.317 519.322 164.296C520.598 166.276 518.23 168.958 513.383 168.033C508.536 167.108 508.814 164.37 508.814 164.37C508.814 164.37 510.164 160.3 509.776 157.044C509.387 153.788 518.582 155.731 518.582 155.731Z" fill="#8E4F3A"/>
<path d="M513.79 137.009C513.79 137.009 517.805 141.227 519.655 143.354C521.523 145.482 521.727 149.607 521.727 149.607C521.727 149.607 524.872 145.778 523.558 141.319C522.263 136.861 519.155 128.185 511.293 130.848C503.43 133.512 503.134 145.26 504.059 151.087C504.059 151.087 507.593 138.23 513.79 137.009Z" fill="#16202E"/>
<path d="M521.596 163.723C521.596 163.723 515.639 178.8 512.032 181.427C512.032 181.427 507.277 166.054 507.61 163.797C507.61 163.797 514.77 160.985 521.596 163.723Z" fill="#8E4F3A"/>
<path d="M509.018 160.078C509.018 160.078 498.4 169.513 501.156 175.415C503.506 180.447 511.849 177.357 510.461 172.085C509.092 166.812 509.018 160.078 509.018 160.078Z" fill="#16202E"/>
<path d="M510.405 157.414C510.405 157.414 514.068 159.135 517.62 156.582C517.62 156.582 516.64 158.617 514.013 158.913C511.404 159.209 510.405 157.414 510.405 157.414Z" fill="#633029"/>
</g>
<g clip-path="url(#clip0_139_920)">
<path d="M239.596 178.024C239.596 178.024 242.999 177.972 244.194 176.673C245.415 175.374 247.545 174.205 248.22 173.868C249.13 173.426 251.676 170.958 251.987 172.153C252.299 173.348 247.961 176.413 247.129 177.219C246.298 178.05 250.74 178.388 251.39 179.193C252.039 179.998 249.779 188.389 246.818 187.74C243.856 187.09 241.44 184.103 240.869 184.103C240.297 184.103 238.687 183.739 238.687 183.739L239.596 178.024Z" fill="#EEA886"/>
<path d="M250.767 178.855C250.767 178.855 259.599 181.557 259.963 182.311C260.327 183.064 260.093 183.635 259.236 183.428C258.404 183.22 250.585 181.116 250.585 181.116C250.585 181.116 260.249 186.389 260.664 186.909C260.924 187.22 260.483 188.311 260.015 188.259C259.547 188.208 249.598 183.635 249.598 183.635C249.598 183.635 258.612 188.571 258.82 189.169C259.028 189.688 258.404 190.624 257.703 190.312C257.001 190 248.325 185.999 248.325 185.999C248.325 185.999 254.586 190.104 254.508 190.779C254.456 191.195 254.118 192.156 252.533 191.039C250.949 189.922 246.896 187.766 246.896 187.766L250.767 178.855Z" fill="#EEA886"/>
<path d="M221.022 327.035C221.022 327.035 223.853 331.269 227.828 332.178C231.803 333.088 235.725 334.543 235.751 337.062C235.777 339.582 224.269 341.063 219.723 338.543C212.942 334.776 212.241 335.919 211.488 334.023C210.734 332.127 212.397 327.087 212.345 326.489C212.267 325.736 221.022 327.035 221.022 327.035Z" fill="#353A3D"/>
<path d="M220.58 324.93C220.58 324.93 221.1 326.983 221.022 327.009C220.944 327.061 212.059 328.1 212.345 326.463C212.553 325.138 212.864 323.683 212.864 323.683L220.58 324.93Z" fill="#81807E"/>
<path d="M165.247 326.749C165.247 326.749 167.273 330.801 170.728 332.178C174.417 333.659 177.378 335.348 177.3 337.79C177.222 340.232 168.286 342.699 161.765 338.023C157.661 335.062 156.336 335.036 155.687 333.191C155.037 331.321 156.83 326.463 156.804 325.892C156.778 325.164 165.247 326.749 165.247 326.749Z" fill="#353A3D"/>
<path d="M165.35 324.645C165.35 324.645 165.324 326.723 165.246 326.749C165.168 326.801 156.596 327.502 156.804 325.892C156.985 324.619 157.635 323.06 157.635 323.06L165.35 324.645Z" fill="#81807E"/>
<path d="M196.836 200.755C196.836 200.755 208.11 243.931 212.397 253.932C216.371 263.18 217.696 276.118 218.242 282.612C218.943 290.795 223.022 322.618 223.515 325.008C224.009 327.398 210.267 326.333 210.267 326.333C210.267 326.333 200.785 271.312 196.862 263.284C194.238 257.933 179.015 219.485 177.248 221.719C175.508 223.927 173.352 262.427 172.053 268.818C170.754 275.208 166.805 325.71 166.805 325.71C166.805 325.71 157.947 327.009 155.583 325.008C155.583 325.008 154.517 281.885 155.323 269.909C155.635 265.337 149.971 215.147 157.245 194.936C161.038 184.259 196.836 200.755 196.836 200.755Z" fill="#2D3133"/>
<path d="M134.047 169.789C134.047 170.283 134.982 172.257 136.463 175.089C138.645 170.724 140.359 167.165 140.905 165.84C142.749 161.502 152.205 151.578 152.205 151.578C152.205 151.578 152.205 151.578 152.205 151.604C152.205 151.63 152.205 151.63 152.205 151.656C152.205 151.682 152.231 151.708 152.231 151.734C152.231 151.76 152.231 151.76 152.257 151.786C152.257 151.812 152.257 151.812 152.257 151.838C152.777 153.761 155.946 165.736 156.05 171.66C156.18 178.076 157.869 189.974 157.869 189.974L159.843 190.26L164.207 190.883L164.727 190.961L166 191.143L177.586 192.78L181.691 193.351L182.236 193.429L184.574 193.767L191.069 194.676L192.731 194.91H192.757L194.004 195.092L195.719 195.326C195.771 195.274 197.381 193.04 197.148 188.13C196.992 184.96 196.602 178.985 196.758 173.452C196.758 173.426 196.758 173.4 196.758 173.374C196.758 173.296 196.758 173.244 196.758 173.166C196.758 173.14 196.758 173.114 196.758 173.088C196.862 170.049 197.122 167.165 197.693 164.983C198.083 163.502 198.343 162.022 198.499 160.645C198.499 160.567 198.525 160.515 198.525 160.437C198.55 160.177 198.576 159.917 198.602 159.684C198.966 155.839 198.68 152.929 198.654 152.747V152.773C198.784 153.033 199.616 156.125 200.733 159.943C202.603 166.412 205.227 174.959 206.344 175.374C207.981 175.972 234.296 183.765 239.96 184.571C240.609 184.675 240.999 184.649 241.025 184.545C241.051 184.467 241.077 184.389 241.103 184.285C241.804 181.999 242.739 178.128 242.895 177.505C242.921 177.453 242.921 177.427 242.921 177.427L241.908 177.115L213.28 168.542L200.187 130.796C199.901 130.588 196.706 129.029 194.342 127.912C191.952 126.769 189.068 125.107 186.445 123.678C185.12 122.95 183.847 122.275 182.756 121.781L182.6 121.704C180.807 120.872 179.612 120.327 179.612 120.327C179.56 120.327 179.275 120.301 178.833 120.249C176.313 120.015 168.494 119.288 165.896 119.132C165.688 119.106 165.506 119.106 165.35 119.106C165.221 119.106 165.143 119.106 165.091 119.106C164.753 119.132 163.142 119.677 161.038 120.483C160.96 120.509 160.882 120.535 160.804 120.586C160.7 120.612 160.596 120.664 160.492 120.69C160.311 120.768 160.129 120.82 159.921 120.898C159.531 121.054 159.142 121.21 158.752 121.366C158.622 121.418 158.466 121.47 158.336 121.522C154.102 123.21 149.244 125.289 148.101 126.12C147.348 126.665 144.958 131.134 142.204 136.667C138.671 148.019 134.177 165.399 134.021 169.685C134.047 169.659 134.047 169.737 134.047 169.789Z" fill="#DECBC4"/>
<path d="M195.693 195.3C195.693 195.3 196.576 196.339 196.81 200.755C196.81 200.755 160.986 196.573 157.193 194.936C157.193 194.936 157.037 190.078 157.843 189.974C158.752 189.896 195.693 195.3 195.693 195.3Z" fill="#495055"/>
<path d="M165.143 117.807C165.246 123.418 176.131 126.509 176.131 126.509C176.131 126.509 180.678 120.794 179.586 120.249C179.171 120.041 178.989 119.184 178.937 118.222C178.885 117.313 178.937 116.3 178.989 115.677C179.015 115.287 179.041 115.027 179.041 115.027C179.041 115.027 177.482 113.391 175.508 111.442C172.053 108.013 167.299 103.649 167.299 105.389C167.299 105.493 167.299 105.597 167.351 105.727C168.208 109.624 165.143 117.807 165.143 117.807Z" fill="#EEA886"/>
<path d="M166.052 190.831C166.052 190.831 165.273 195.767 165.195 197.04L163.532 196.702C163.532 196.702 164 191.481 164.259 190.598L166.052 190.831Z" fill="#353A3D"/>
<path d="M192.705 194.728C192.705 194.728 193.329 199.222 193.355 200.911L191.588 200.677C191.588 200.677 191.225 195.066 191.017 194.494L192.705 194.728Z" fill="#353A3D"/>
<path d="M169.351 109.572C169.377 109.598 169.845 110.299 170.624 111.286C172.287 113.391 175.43 116.846 178.963 118.222C178.911 117.313 178.963 116.3 179.015 115.677C179.379 115.677 179.742 115.625 180.106 115.547C179.145 113.858 177.742 112.092 177.742 112.092L175.56 111.442L169.351 109.572Z" fill="#A77860"/>
<path d="M167.247 105.441C168.182 107.493 169.091 108.974 169.325 109.572C169.481 109.961 169.949 110.585 170.598 111.286C172.391 113.209 175.716 115.78 179.015 115.677C179.379 115.677 179.742 115.625 180.106 115.547C181.431 115.261 182.99 114.637 183.847 112.949C190.627 99.6481 185.717 88.7632 185.717 88.7632C185.717 88.7632 167.143 83.5156 164.233 89.1009C162.207 93.0496 165.039 100.635 167.247 105.441Z" fill="#EEA886"/>
<path d="M185.717 88.7892C185.717 88.7892 187.432 88.6853 187.873 85.412C188.289 82.1908 187.432 81.2815 187.432 81.2815C187.432 81.2815 179.768 78.0862 177.015 77.6706C174.261 77.2549 167.481 76.8652 165.896 78.6577C165.896 78.6577 162.051 77.7745 160.986 84.1651C159.323 94.3226 166.675 104.194 166.675 104.194C166.675 104.194 166.623 97.5698 168.078 96.6866C169.533 95.8033 170.806 97.9075 170.806 97.9075L173.793 98.4531C173.793 98.4531 169.247 88.6333 174.702 88.2696C180.158 87.88 182.6 89.3607 185.717 88.7892Z" fill="#252E3B"/>
<path d="M170.728 95.2318C170.442 92.2962 165.169 91.2051 165.506 94.2446C165.87 97.31 168.468 100.246 169.663 100.142C170.884 100.064 170.936 97.4659 170.728 95.2318Z" fill="#EEA886"/>
<path d="M136.463 175.089C138.775 179.479 142.386 185.947 145.997 192.208C145.529 193.091 145.061 193.975 144.62 194.832C143.529 196.936 142.593 198.989 141.892 200.885C141.087 203.171 139.944 209.042 142.126 210.133L153.582 216.472C153.582 216.472 153.66 216.238 153.816 215.822C154.206 214.783 155.011 212.601 156.154 209.743C156.18 209.64 156.31 209.38 156.466 208.99C156.7 208.445 157.011 207.691 157.401 206.808C157.557 206.418 157.739 206.003 157.921 205.587C158.128 205.093 158.336 204.6 158.57 204.106C158.882 203.379 159.193 202.651 159.479 201.976C160.259 200.158 160.882 198.729 160.882 198.729C160.908 198.651 160.96 198.573 160.986 198.469C161.35 197.664 161.739 196.858 162.129 196.053C162.726 194.806 163.35 193.559 163.973 192.338C164.025 192.208 164.103 192.078 164.155 191.974C164.259 191.767 164.389 191.559 164.493 191.325C164.571 191.195 164.623 191.065 164.701 190.935C164.727 190.909 164.727 190.883 164.753 190.857C164.779 190.805 164.805 190.753 164.831 190.701C168.156 184.649 171.871 179.609 173.066 172.179C173.17 171.452 173.3 170.75 173.403 170.049C173.585 168.88 173.741 167.711 173.871 166.568C173.923 166.126 173.975 165.71 174.027 165.295C174.624 160.359 174.988 155.943 175.274 152.877C176.183 143.317 170.312 132.952 165.818 126.561C163.402 123.132 161.402 120.846 161.012 120.431L160.986 120.405C160.908 120.431 160.83 120.457 160.752 120.509C160.648 120.534 160.544 120.586 160.44 120.612C160.259 120.69 160.077 120.742 159.869 120.82C159.479 120.976 159.09 121.132 158.7 121.288C158.57 121.34 158.414 121.392 158.284 121.444C153.92 123.158 144.75 125.678 143.607 126.509C142.931 126.977 141.45 131.341 139.736 136.849C136.203 148.201 134.099 165.321 133.995 169.581C133.995 169.659 133.995 169.711 133.995 169.763C134.047 170.283 134.982 172.257 136.463 175.089ZM153.868 172.958C153.868 175.089 153.167 177.531 152.101 180.128C152.075 180.18 152.049 180.258 152.023 180.336C151.296 178.778 150.595 177.271 149.971 175.868C148.257 172.049 147.088 169.062 147.036 167.893C146.62 160.333 152.205 151.604 152.205 151.604C152.205 151.63 152.205 151.63 152.205 151.656C152.205 151.682 152.231 151.708 152.231 151.734C152.231 151.76 152.231 151.76 152.257 151.786C152.257 151.812 152.257 151.812 152.257 151.838C153.4 156.358 153.868 172.958 153.868 172.958Z" fill="#3C4145"/>
<path d="M175.638 201.482L142.983 216.03C141.139 216.861 138.956 216.03 138.151 214.186L129.189 194.079C128.357 192.234 129.189 190.078 131.033 189.247L163.714 174.699C165.558 173.868 167.74 174.699 168.546 176.543L177.482 196.65C178.339 198.495 177.508 200.677 175.638 201.482Z" fill="#B3A5A0"/>
<path d="M182.704 121.755C182.704 121.755 184.237 126.847 186.211 139.602C186.289 140.018 186.341 140.46 186.419 140.901C186.419 140.953 186.445 141.005 186.445 141.057C186.497 141.343 186.523 141.655 186.575 141.94C186.575 141.966 186.575 142.018 186.601 142.044C186.627 142.252 186.653 142.46 186.679 142.668C186.756 143.161 186.834 143.681 186.912 144.201C187.796 150.409 189.043 160.956 190.238 171.607C191.173 179.998 193.329 188.623 194.004 195.04C194.134 196.287 194.472 197.975 194.888 199.872C194.94 200.079 194.992 200.313 195.043 200.521C196.966 208.626 200.681 220.109 200.681 220.109L201.772 219.095L204.993 216.134C205.746 215.459 206.006 214.393 205.72 213.432C203.928 207.691 197.875 187.324 196.758 173.01C197.304 167.971 198.706 161.242 198.499 160.255C198.525 160.281 198.525 160.333 198.525 160.359C199.174 162.125 199.875 164.074 200.577 165.944C202.499 170.984 204.448 175.66 205.253 175.972C207.071 176.647 239.648 186.259 239.882 184.908C239.908 184.778 239.934 184.623 239.96 184.467C239.986 184.311 240.012 184.155 240.064 183.999C240.453 182.155 241.207 179.531 241.7 177.764C241.778 177.505 241.856 177.245 241.908 177.037C242.116 176.31 242.272 175.842 242.272 175.842L214.735 166.802L200.837 130.458C200.551 130.25 197.018 128.328 194.68 127.211C192.238 126.042 189.146 124.613 186.393 123.34C185.094 122.743 183.847 122.171 182.808 121.677L182.704 121.755Z" fill="#3C4145"/>
<path d="M164.051 134.355L169.351 137.342L167.065 139.654L173.092 172.179C174.313 164.541 174.884 157.32 175.3 152.877C176.677 138.096 161.921 121.418 161.012 120.405C160.311 120.664 159.531 120.976 158.752 121.288L164.051 134.355Z" fill="#51565C"/>
<path d="M182.6 121.626C182.6 121.626 184.574 128.094 186.886 144.227C187.77 150.435 189.016 160.982 190.211 171.633L191.432 141.161L188.913 138.433L191.147 135.628L186.341 123.366C185.042 122.769 183.795 122.197 182.756 121.703L182.6 121.626Z" fill="#51565C"/>
<path d="M160.726 120.508L165.143 117.807C165.143 117.807 165.272 120.223 176.131 126.509L173.04 135.212L160.726 120.508Z" fill="#F5E2D9"/>
<path d="M179.041 119.028C179.041 119.028 178.859 121.626 176.157 126.509L182.184 134.381L182.626 121.626L179.041 119.028Z" fill="#F5E2D9"/>
<path d="M176.131 126.509C176.131 126.509 174.962 131.186 175.378 132.484C175.378 132.484 177.95 133.42 179.794 132.251C179.794 132.251 178.495 128.977 176.131 126.509Z" fill="#FAA146"/>
<path d="M182.158 193.897C182.808 190.598 182.184 180.726 182.158 180.31L181.587 180.336C181.587 180.44 182.236 190.572 181.587 193.793L182.158 193.897Z" fill="#AD9F99"/>
<path d="M177.586 192.39C177.586 192.39 182.86 193.014 184.6 193.455L184.366 199.352L177.456 198.625L177.586 192.39Z" fill="#69737A"/>
<path d="M178.755 131.835C178.755 131.835 184.626 146.694 183.665 163.294C182.678 180.518 181.041 186.779 181.041 186.779L177.404 191.325L175.794 185.74C175.794 185.74 180.652 163.762 177.508 142.382C176.937 138.511 176.105 131.16 176.105 131.16L178.755 131.835Z" fill="#FAA146"/>
<path d="M161.09 201.976C161.09 201.976 162.363 204.496 163.61 204.911C164.883 205.327 166.701 207.379 166.701 207.379L157.817 212.055C157.817 212.055 155.453 207.431 155.349 204.496C155.245 201.534 161.09 201.976 161.09 201.976Z" fill="#EEA886"/>
<path d="M161.921 202.21L162.519 203.405C162.519 203.405 156.881 207.535 155.349 207.795L154.829 206.21L161.921 202.21Z" fill="#DECBC4"/>
<path d="M162.519 202.262C162.519 202.262 158.284 205.769 154.725 207.379L138.749 179.375L148.932 173.816C148.932 173.79 162.233 200.157 162.519 202.262Z" fill="#3C4145"/>
<path d="M198.317 152.747C198.524 156.748 198.472 160.281 198.472 160.281C198.472 160.307 198.472 160.411 198.498 160.593C198.498 160.515 198.524 160.463 198.524 160.385C199.174 162.151 199.875 164.1 200.577 165.97C200.733 163.788 200.784 161.762 200.733 159.891C200.447 148.721 196.94 142.85 196.94 142.85C197.745 144.798 198.135 148.981 198.317 152.747Z" fill="#2D3133"/>
</g>
<g clip-path="url(#clip1_139_920)">
<path d="M89.2226 319.744C93.6613 316.625 98.8497 294.866 99.1646 281.91C99.3296 275.267 101.279 272.508 103.018 270.063C104.668 267.724 106.108 265.715 105.268 261.096C103.678 252.264 107.862 248.44 107.907 248.41L107.427 247.855C107.247 248.02 102.884 251.949 104.548 261.231C105.328 265.55 104.038 267.364 102.419 269.644C100.709 272.043 98.5948 275.027 98.4299 281.895C98.1 295.796 92.7915 316.34 88.8027 319.144L89.2226 319.744Z" fill="#1777E5"/>
<path d="M79.9105 313.4C79.4906 312.456 79.0557 311.466 78.5609 310.431C76.0266 305.078 73.7773 304.193 70.0584 302.739C69.1437 302.379 68.124 301.974 66.9843 301.464C61.6609 299.065 62.6806 295.541 63.5954 292.422C63.7153 291.987 63.8503 291.552 63.9553 291.117C64.4201 289.288 63.5204 288.373 62.1558 286.978C61.1361 285.944 59.8765 284.654 58.9018 282.63C57.8671 280.395 58.4069 279.211 59.0517 278.596C60.4013 277.321 63.5204 277.546 66.4595 279.151C67.3742 279.646 68.124 280.44 68.9188 281.28C70.7932 283.244 73.1325 285.689 79.0407 285.719C82.4147 285.734 84.2592 286.199 85.2039 287.278C86.2836 288.493 86.0886 290.322 85.8037 292.842C85.6987 293.711 85.5938 294.701 85.5338 295.781C85.1289 302.154 88.8928 306.757 88.9378 306.802C91.1871 309.487 93.9613 315.035 92.7616 318.469C92.2668 319.909 91.1421 320.808 89.4326 321.153C88.7578 321.288 88.128 321.363 87.5582 321.363C83.4344 321.348 81.9199 317.929 79.9105 313.4ZM66.1146 279.811C63.4904 278.371 60.6712 278.086 59.5616 279.136C58.7218 279.93 59.1117 281.31 59.5916 282.315C60.5063 284.234 61.6759 285.419 62.6956 286.469C64.1202 287.923 65.2449 289.078 64.675 291.312C64.5701 291.747 64.4351 292.197 64.3001 292.632C63.4004 295.736 62.5307 298.66 67.2843 300.804C68.3939 301.299 69.4136 301.704 70.3283 302.064C74.0772 303.533 76.5665 304.508 79.2207 310.131C79.7155 311.181 80.1504 312.156 80.5703 313.116C82.8646 318.319 84.2592 321.468 89.2677 320.448C90.7072 320.163 91.637 319.414 92.0568 318.244C93.1065 315.23 90.5873 309.952 88.3679 307.297C88.203 307.102 84.3791 302.439 84.799 295.751C84.874 294.671 84.979 293.666 85.0839 292.782C85.3389 290.442 85.5338 288.763 84.6641 287.788C83.8693 286.903 82.1298 286.499 79.0407 286.484C72.8176 286.454 70.3733 283.889 68.3939 281.82C67.6142 280.965 66.9394 280.245 66.1146 279.811Z" fill="#1777E5"/>
<path d="M89.3575 325.592L90.0923 325.547C90.0623 324.857 89.1326 308.617 82.6096 303.878C75.4567 298.66 73.2074 293.067 72.1277 289.303C70.8681 284.879 64.42 283.694 64.1501 283.634L64.0151 284.354C64.0751 284.369 70.2833 285.509 71.4229 289.498C72.5326 293.367 74.8419 299.125 82.1747 304.463C88.4128 309.022 89.3425 325.427 89.3575 325.592Z" fill="#1777E5"/>
<path d="M88.1129 329.236C86.5834 328.471 86.6284 325.397 86.7183 320.748C86.8233 314.885 86.9733 306.833 83.8992 299.44C80.6302 291.582 83.5393 289.288 86.3584 287.053C89.5075 284.564 92.4916 282.21 86.7783 271.608C84.1541 266.734 83.3144 263.435 84.1541 261.231C84.9789 259.057 87.3032 258.202 89.7624 257.302C94.0062 255.758 98.8047 253.988 98.1899 245.021C97.9949 242.277 98.3249 240.582 99.2096 239.698C100.169 238.738 101.594 238.843 103.228 238.963C105.703 239.143 108.507 239.353 110.951 236.159C111.206 235.364 113.545 228.256 116.334 227.026C116.919 226.771 117.504 226.771 118.044 227.041C119.963 227.986 121.088 229.081 121.463 230.4C122.108 232.71 120.413 235.319 118.464 238.333C115.39 243.072 111.896 248.455 115.51 254.858C120.293 263.315 117.774 266.285 114.265 270.378C112.256 272.733 109.991 275.387 108.462 279.721C107.232 283.215 109.332 286.544 111.341 289.753C113.875 293.786 116.484 297.97 110.981 301.584C101.879 307.582 92.8815 327.136 92.7915 327.331L92.7615 327.406L92.6865 327.466C91.0071 328.786 89.7924 329.401 88.8627 329.401C88.5928 329.416 88.3379 329.356 88.1129 329.236ZM110.576 300.984C115.48 297.76 113.275 294.236 110.726 290.157C108.717 286.948 106.437 283.305 107.772 279.496C109.332 275.027 111.656 272.313 113.71 269.914C117.144 265.895 119.409 263.241 114.865 255.233C111.026 248.44 114.805 242.622 117.834 237.958C119.708 235.079 121.313 232.59 120.743 230.61C120.428 229.501 119.439 228.556 117.714 227.731C117.369 227.566 117.009 227.566 116.619 227.731C114.025 228.856 111.641 236.384 111.626 236.459L111.611 236.518L111.566 236.563C108.867 240.117 105.703 239.892 103.168 239.713C101.654 239.608 100.454 239.518 99.7194 240.237C98.9996 240.942 98.7447 242.502 98.9097 244.991C99.5695 254.513 94.2611 256.448 90.0024 258.007C87.6031 258.877 85.5487 259.642 84.8289 261.501C84.0791 263.495 84.8889 266.6 87.4081 271.263C93.4213 282.42 90.0623 285.074 86.8083 287.638C84.0791 289.783 81.5149 291.807 84.574 299.155C87.708 306.698 87.5581 314.825 87.4531 320.763C87.3781 324.812 87.3182 328.021 88.4428 328.576C89.1026 328.906 90.3472 328.351 92.1617 326.942C92.8965 325.367 101.504 306.952 110.576 300.984Z" fill="#1777E5"/>
<path d="M73.7473 244.031C78.3809 242.442 77.4212 251.379 79.3706 257.977C81.335 264.59 101.144 260.856 92.8365 277.396C84.514 293.936 103.363 282.93 97.7251 297.37C92.1018 311.811 97.2302 327.241 91.1121 323.328C84.9939 319.399 87.6781 301.224 81.32 299.065C74.9619 296.905 73.9122 294.386 80.2253 288.508C86.5384 282.63 63.7153 276.796 69.3386 264.95C74.9769 253.089 68.3939 245.861 73.7473 244.031Z" fill="#1777E5"/>
<path d="M88.9827 322.383C89.5675 319.909 94.546 298.165 89.8974 295.526C85.8037 293.202 85.9086 284.189 86.5384 275.687C87.1083 268.159 77.4212 264.635 77.0163 264.485L76.7764 265.175C76.8663 265.205 86.3285 268.654 85.8187 275.627C85.1589 284.369 85.0989 293.636 89.5375 296.156C93.0615 298.15 89.8225 315.635 88.2629 322.203L88.9827 322.383Z" fill="#455A64"/>
<path d="M106.467 314.63L99.8544 339.733H85.0688L78.4558 314.63H106.467Z" fill="#31444E"/>
<path d="M106.467 314.63C106.467 314.63 91.9068 317.359 91.9068 339.733H85.0688L78.4558 314.63H106.467Z" fill="url(#paint3_linear_139_920)"/>
</g>
<defs>
<filter id="filter0_d_139_920" x="267.384" y="86.3901" width="156.949" height="201.143" filterUnits="userSpaceOnUse" color-interpolation-filters="sRGB">
<feFlood flood-opacity="0" result="BackgroundImageFix"/>
<feColorMatrix in="SourceAlpha" type="matrix" values="0 0 0 0 0 0 0 0 0 0 0 0 0 0 0 0 0 0 127 0" result="hardAlpha"/>
<feOffset dy="4"/>
<feGaussianBlur stdDeviation="4"/>
<feComposite in2="hardAlpha" operator="out"/>
<feColorMatrix type="matrix" values="0 0 0 0 0 0 0 0 0 0 0 0 0 0 0 0 0 0 0.04 0"/>
<feBlend mode="normal" in2="BackgroundImageFix" result="effect1_dropShadow_139_920"/>
<feBlend mode="normal" in="SourceGraphic" in2="effect1_dropShadow_139_920" result="shape"/>
</filter>
<filter id="filter1_d_139_920" x="424.463" y="0.569763" width="95.4233" height="101.371" filterUnits="userSpaceOnUse" color-interpolation-filters="sRGB">
<feFlood flood-opacity="0" result="BackgroundImageFix"/>
<feColorMatrix in="SourceAlpha" type="matrix" values="0 0 0 0 0 0 0 0 0 0 0 0 0 0 0 0 0 0 127 0" result="hardAlpha"/>
<feOffset dy="4"/>
<feGaussianBlur stdDeviation="4"/>
<feComposite in2="hardAlpha" operator="out"/>
<feColorMatrix type="matrix" values="0 0 0 0 0 0 0 0 0 0 0 0 0 0 0 0 0 0 0.04 0"/>
<feBlend mode="normal" in2="BackgroundImageFix" result="effect1_dropShadow_139_920"/>
<feBlend mode="normal" in="SourceGraphic" in2="effect1_dropShadow_139_920" result="shape"/>
</filter>
<filter id="filter2_d_139_920" x="457.413" y="124.736" width="113.587" height="122.97" filterUnits="userSpaceOnUse" color-interpolation-filters="sRGB">
<feFlood flood-opacity="0" result="BackgroundImageFix"/>
<feColorMatrix in="SourceAlpha" type="matrix" values="0 0 0 0 0 0 0 0 0 0 0 0 0 0 0 0 0 0 127 0" result="hardAlpha"/>
<feOffset dy="4"/>
<feGaussianBlur stdDeviation="4"/>
<feComposite in2="hardAlpha" operator="out"/>
<feColorMatrix type="matrix" values="0 0 0 0 0 0 0 0 0 0 0 0 0 0 0 0 0 0 0.04 0"/>
<feBlend mode="normal" in2="BackgroundImageFix" result="effect1_dropShadow_139_920"/>
<feBlend mode="normal" in="SourceGraphic" in2="effect1_dropShadow_139_920" result="shape"/>
</filter>
<linearGradient id="paint0_linear_139_920" x1="345.858" y1="299.821" x2="345.858" y2="149.754" gradientUnits="userSpaceOnUse">
<stop stop-color="white"/>
<stop offset="1" stop-color="#FCFCFC"/>
</linearGradient>
<linearGradient id="paint1_linear_139_920" x1="472.174" y1="100.446" x2="472.174" y2="35.5394" gradientUnits="userSpaceOnUse">
<stop stop-color="white"/>
<stop offset="1" stop-color="#FCFCFC"/>
</linearGradient>
<linearGradient id="paint2_linear_139_920" x1="514.206" y1="250.033" x2="514.206" y2="161.511" gradientUnits="userSpaceOnUse">
<stop stop-color="white"/>
<stop offset="1" stop-color="#FCFCFC"/>
</linearGradient>
<linearGradient id="paint3_linear_139_920" x1="78.458" y1="327.181" x2="106.47" y2="327.181" gradientUnits="userSpaceOnUse">
<stop stop-color="#455A64"/>
<stop offset="1" stop-color="#455A64"/>
</linearGradient>
<clipPath id="clip0_139_920">
<rect width="131.891" height="263.366" fill="white" transform="translate(128.877 77.3069)"/>
</clipPath>
<clipPath id="clip1_139_920">
<rect width="63.2661" height="112.871" fill="white" transform="translate(58.332 226.861)"/>
</clipPath>
</defs>
</svg>
