<svg width="43" height="40" viewBox="0 0 43 40" fill="none" xmlns="http://www.w3.org/2000/svg">
<path opacity="0.4" d="M37.863 18.9833V28.9667C37.863 33.5667 33.9958 37.3 29.2309 37.3H14.1419C9.37696 37.3 5.50977 33.5667 5.50977 28.9667V19.1C6.82185 20.4667 8.68639 21.25 10.7063 21.25C12.8816 21.25 14.9706 20.2 16.2827 18.5167C17.4566 20.2 19.4593 21.25 21.6864 21.25C23.8962 21.25 25.8643 20.25 27.0556 18.5833C28.3849 20.2333 30.4394 21.25 32.5801 21.25C34.6691 21.25 36.5682 20.4333 37.863 18.9833Z" fill="#593FFB"/>
<path d="M26.8485 2.08331H16.4899L15.2124 14.35C15.1088 15.4833 15.2814 16.55 15.713 17.5166C16.7143 19.7833 19.0623 21.25 21.6865 21.25C24.3452 21.25 26.6413 19.8166 27.6772 17.5333C27.9879 16.8166 28.1778 15.9833 28.1951 15.1333V14.8166L26.8485 2.08331Z" fill="#593FFB"/>
<path opacity="0.6" d="M39.5723 13.7833L39.0717 9.16665C38.3466 4.13331 35.9814 2.08331 30.9229 2.08331H24.2935L25.571 14.5833C25.5883 14.75 25.6055 14.9333 25.6055 15.25C25.7091 16.1166 25.9854 16.9166 26.3997 17.6333C27.6427 19.8333 30.0597 21.25 32.5803 21.25C34.8765 21.25 36.9482 20.2666 38.243 18.5333C39.2789 17.2 39.745 15.5166 39.5723 13.7833Z" fill="#593FFB"/>
<path opacity="0.6" d="M12.3462 2.08331C7.27049 2.08331 4.92255 4.13331 4.18018 9.21665L3.71405 13.8C3.54141 15.5833 4.04207 17.3166 5.12972 18.6666C6.4418 20.3166 8.46172 21.25 10.7061 21.25C13.2267 21.25 15.6437 19.8333 16.8694 17.6666C17.3183 16.9166 17.6118 16.05 17.6981 15.15L19.0447 2.09998H12.3462V2.08331Z" fill="#593FFB"/>
<path d="M20.5643 27.7667C18.3717 27.9834 16.7144 29.7834 16.7144 31.9167V37.3H26.6413V32.5C26.6586 29.0167 24.5351 27.3667 20.5643 27.7667Z" fill="#593FFB"/>
</svg>
